<svg xmlns="http://www.w3.org/2000/svg" width="15" height="15" viewBox="0 0 15 15">
  <g id="dark" transform="translate(-232.667 -354.667)">
    <path id="Path" d="M7.772,15A7.694,7.694,0,0,1,0,7.385,7.648,7.648,0,0,1,5.807.015.494.494,0,0,1,6.288.8a6.067,6.067,0,0,0-.945,3.258,6.251,6.251,0,0,0,6.314,6.187,6.4,6.4,0,0,0,2.584-.54c.408-.18.893.165.723.57A7.773,7.773,0,0,1,7.772,15Z" transform="translate(232.667 354.667)" fill="#828fa3"/>
    <path id="Path-2" data-name="Path" d="M.759.086l.788.525A1.943,1.943,0,0,0,2.625.937,1.943,1.943,0,0,0,3.7.611L4.49.086a.486.486,0,0,1,.674.673l-.525.787a1.943,1.943,0,0,0,0,2.157l.525.788a.485.485,0,0,1-.673.673L3.7,4.639a1.943,1.943,0,0,0-2.157,0L.76,5.164a.486.486,0,0,1-.675-.673L.61,3.7A1.943,1.943,0,0,0,.937,2.625,1.943,1.943,0,0,0,.61,1.546L.085.759A.486.486,0,0,1,.759.086Z" transform="translate(242.416 354.667)" fill="#828fa3"/>
  </g>
</svg>
