<svg xmlns="http://www.w3.org/2000/svg" width="18.333" height="18.334" viewBox="0 0 18.333 18.334">
  <g id="light" transform="translate(-127 -353)">
    <path id="Path" d="M4.167,0A4.167,4.167,0,1,1,1.22,1.22,4.167,4.167,0,0,1,4.167,0Z" transform="translate(132 358)" fill="#828fa3"/>
    <path id="Shape" d="M136.166,371.334a.836.836,0,0,1-.833-.833v-.833a.833.833,0,1,1,1.667,0v.833a.834.834,0,0,1-.833.833Zm6.657-1.678a.829.829,0,0,1-.579-.234l-1.25-1.249a.842.842,0,0,1-.244-.59.833.833,0,0,1,1.422-.59l1.25,1.25a.833.833,0,0,1-.592,1.412Zm-13.313,0H129.5a.824.824,0,0,1-.581-.244.832.832,0,0,1-.011-1.168l1.25-1.25a.834.834,0,0,1,1.423.59.84.84,0,0,1-.245.59l-1.249,1.249A.831.831,0,0,1,129.51,369.656ZM144.5,363h-.833a.833.833,0,0,1,0-1.667h.833a.833.833,0,0,1,0,1.667Zm-15.834,0h-.833a.828.828,0,0,1-.59-.244.833.833,0,0,1,0-1.178.829.829,0,0,1,.59-.245h.833a.829.829,0,0,1,.59.245.833.833,0,0,1,0,1.178A.828.828,0,0,1,128.667,363Zm12.906-5.406a.834.834,0,0,1-.589-.244.836.836,0,0,1-.183-.274.839.839,0,0,1,.006-.644.833.833,0,0,1,.186-.271l1.25-1.25a.833.833,0,0,1,1.178,1.179l-1.25,1.25a.834.834,0,0,1-.27.186.823.823,0,0,1-.322.068Zm-10.826-.021h-.007a.832.832,0,0,1-.579-.233l-1.25-1.25a.833.833,0,0,1,.59-1.423.843.843,0,0,1,.589.244l1.249,1.25a.833.833,0,0,1-.592,1.412Zm5.42-2.073a.838.838,0,0,1-.589-.244.828.828,0,0,1-.245-.59v-.833a.834.834,0,0,1,.833-.833.833.833,0,0,1,.833.833v.833a.833.833,0,0,1-.833.833Z" fill="#828fa3"/>
  </g>
</svg>
