<svg xmlns="http://www.w3.org/2000/svg" width="16" height="10.222" viewBox="0 0 16 10.222">
  <g id="show-sidebar" transform="translate(-18 -963)">
    <path id="Shape" d="M26,973.222A9.132,9.132,0,0,1,21.431,972a9.006,9.006,0,0,1-3.247-3.214,1.335,1.335,0,0,1,0-1.354,9.009,9.009,0,0,1,3.247-3.213,9.16,9.16,0,0,1,9.137,0,9.012,9.012,0,0,1,3.247,3.214,1.335,1.335,0,0,1,0,1.354A9.009,9.009,0,0,1,30.569,972,9.132,9.132,0,0,1,26,973.222Zm0-8.889a3.778,3.778,0,1,0,3.777,3.778A3.782,3.782,0,0,0,26,964.333ZM26,971a2.892,2.892,0,0,1-2.889-2.889,2.858,2.858,0,0,1,.34-1.361,1.189,1.189,0,1,0,1.189-1.188A2.889,2.889,0,1,1,26,971Z" fill="#fff"/>
  </g>
</svg>
